<?xml version="1.0" standalone="no"?>
<!DOCTYPE svg PUBLIC "-//W3C//DTD SVG 20010904//EN"
 "http://www.w3.org/TR/2001/REC-SVG-20010904/DTD/svg10.dtd">
<svg version="1.0" xmlns="http://www.w3.org/2000/svg"
 width="300.000000pt" height="300.000000pt" viewBox="0 0 300.000000 300.000000"
 preserveAspectRatio="xMidYMid meet">
<metadata>
Created by potrace 1.10, written by Peter Selinger 2001-2011
</metadata>
<g transform="translate(0.000000,300.000000) scale(0.100000,-0.100000)"
fill="#000000" stroke="none">
<path d="M597 2851 c-26 -10 -53 -23 -59 -29 -7 -7 -17 -12 -23 -12 -13 0
-105 -92 -105 -105 0 -4 -6 -16 -13 -24 -7 -9 -21 -39 -30 -66 -16 -46 -17
-132 -15 -1150 l3 -1100 31 -60 c39 -76 121 -144 208 -174 62 -21 67 -21 1047
-19 l984 3 0 55 0 55 -990 5 c-839 4 -995 7 -1020 20 -154 74 -190 219 -83
329 69 70 -4 65 1098 71 l995 5 0 1105 0 1105 -990 2 c-921 1 -993 0 -1038
-16z m1908 -1091 l0 -985 -940 -5 c-870 -5 -943 -7 -984 -23 -24 -10 -53 -24
-65 -32 -48 -34 -46 -75 -46 914 0 910 0 929 20 974 25 57 68 101 123 126 41
19 73 19 967 18 l925 -2 0 -985z"/>
<path d="M996 2058 c-8 -18 -21 -51 -29 -73 -21 -58 -42 -114 -61 -162 -9 -24
-23 -62 -32 -85 -9 -24 -22 -59 -29 -78 -22 -60 -46 -124 -61 -158 -27 -63
-21 -72 44 -72 55 0 58 1 72 33 7 17 16 43 19 57 l6 25 143 3 c129 2 143 1
148 -15 3 -10 13 -37 23 -60 l16 -43 58 0 c64 0 70 9 43 72 -15 34 -39 98 -61
158 -16 45 -38 103 -60 160 -9 25 -23 61 -30 80 -22 60 -46 124 -61 158 -13
31 -15 32 -74 32 -59 0 -61 -1 -74 -32z m103 -210 c5 -18 19 -58 31 -88 35
-88 37 -85 -60 -85 -97 0 -95 -3 -60 85 12 30 26 70 31 88 7 21 16 32 29 32
13 0 22 -11 29 -32z"/>
<path d="M1753 2083 c-20 -7 -17 -99 3 -107 9 -3 74 -6 144 -6 71 0 131 -4
134 -9 3 -5 -64 -102 -150 -215 l-155 -206 3 -53 3 -52 235 0 235 0 0 55 0 55
-150 5 c-115 4 -149 8 -147 18 1 7 70 103 153 213 l150 200 -3 52 -3 52 -220
2 c-121 1 -226 -1 -232 -4z"/>
<path d="M1434 1836 c-3 -7 -4 -33 -2 -57 l3 -44 115 0 115 0 0 55 0 55 -113
3 c-90 2 -113 0 -118 -12z"/>
</g>
</svg>
