<?xml version="1.0" encoding="UTF-8"?>
<svg width="1200pt" height="1200pt" version="1.1" viewBox="0 0 1200 1200" xmlns="http://www.w3.org/2000/svg">
 <path d="m625.6 0h-78.961v128.08c51.055-10.52 105.56-11.188 160 0.87891v-128.96h-78.961-2.0781m81.039 129.01v137.71h106.67l-186.67 160-186.67-160h106.67v-138.6c-127.21 26.199-232.75 113.6-261.03 218.25-40.68 150.57 145.81 87.465 340.84 139.29 195.03 51.828 324.75 198.95 365.43 48.387s-75.027-349.6-270.07-401.46c-5.0664-1.3477-10.121-2.5195-15.188-3.6523m-293.33-82.078c-174.27 80.934-295.46 258.19-295.46 463.52 0.011719 45.945 6.9453 91.52 19.199 135.76l-65.16 164.8c-8.8125 22.32-6.9883 46.238 8.9609 65.652 7.7188 9.375 20.027 16.801 34.012 16.801h95.078l32.922 123.44c18.188 68.254 88.641 109.2 156.72 90.867l101.85-27.453 31.906 119.69h527.03l-85.707-321.73c100.21-95.988 158.46-228.27 158.65-367.84 0-204.52-120.13-381.19-293.33-462.56v59.426c142.91 76.922 240 228.4 240 403.2-0.17188 130.4-55.68 254.4-152.56 341.04l-12.215 10.906 75.762 284.36h-416.67l-35.105-131.75-153.52 41.387c-40.266 10.867-80.398-12.387-91.309-53.121l-43.465-163.05h-129.04c-0.41406-2.375-1.5078-6.7617-0.41406-9.5352l71.48-180.87-2.625-8.8281c-12.625-42.332-19.094-86.32-19.172-130.52 0-175.57 98.078-327.62 242.13-404.13v-59.32zm-66.617 491.73h0.003906c-15.914 0-31.176 6.3242-42.43 17.574-11.25 11.254-17.574 26.516-17.574 42.43 0 15.91 6.3242 31.172 17.574 42.426 11.254 11.254 26.516 17.574 42.43 17.574 15.914 0 31.176-6.3203 42.426-17.574 11.254-11.254 17.574-26.512 17.574-42.426 0-15.914-6.3203-31.176-17.574-42.43-11.25-11.25-26.512-17.574-42.426-17.574"/>
</svg>
